<?xml version="1.0" standalone="no"?>
<!DOCTYPE svg PUBLIC "-//W3C//DTD SVG 20010904//EN"
 "http://www.w3.org/TR/2001/REC-SVG-20010904/DTD/svg10.dtd">
<svg version="1.0" xmlns="http://www.w3.org/2000/svg"
 width="870.000000pt" height="870.000000pt" viewBox="0 0 870.000000 870.000000"
 preserveAspectRatio="xMidYMid meet">
<metadata>
Created by potrace 1.14, written by Peter Selinger 2001-2017
</metadata>
<g transform="translate(0.000000,870.000000) scale(0.100000,-0.100000)"
fill="#000000" stroke="none">
<path d="M4935 6736 c-52 -16 -85 -34 -113 -59 -20 -19 -27 -20 -75 -10 -58
12 -635 11 -678 -1 -20 -6 -32 -2 -56 18 -17 14 -33 23 -37 19 -3 -3 -6 -2 -6
4 0 24 -68 33 -236 33 -170 0 -248 -9 -311 -36 -17 -8 -34 -14 -37 -14 -18 0
-114 -79 -199 -164 -53 -53 -94 -96 -91 -96 2 0 -6 -12 -20 -26 -23 -26 -39
-53 -57 -101 -5 -13 -13 -33 -19 -45 -34 -82 -51 -162 -56 -274 -6 -124 -2
-140 30 -128 11 4 15 13 10 26 -4 15 -3 18 6 13 10 -6 12 -1 8 19 -3 14 -2 26
1 26 6 0 30 92 37 140 1 8 16 43 33 78 17 34 31 66 31 71 0 4 11 20 25 35 13
14 22 26 19 26 -2 0 3 11 12 25 9 14 21 22 27 18 5 -3 7 -1 4 4 -4 6 3 24 15
39 31 40 48 57 48 47 0 -4 7 3 16 15 9 14 22 21 31 18 8 -3 12 -2 9 2 -5 9 28
42 42 42 4 0 29 15 55 34 54 38 115 52 272 60 50 3 115 8 147 12 52 6 59 4 92
-22 20 -16 37 -38 37 -49 1 -17 2 -17 6 -2 2 9 13 17 24 17 11 0 29 5 40 11
16 8 25 7 42 -8 11 -10 17 -13 13 -6 -9 17 63 11 73 -5 11 -18 41 -4 34 16 -3
11 -2 13 4 6 4 -6 21 -10 36 -10 32 2 46 -11 23 -20 -9 -4 -24 0 -33 7 -15 13
-15 12 -3 -8 11 -16 18 -19 31 -12 24 12 28 11 25 -6 -3 -19 -16 -32 -16 -15
0 10 -3 10 -14 1 -12 -10 -17 -8 -26 8 -6 12 -15 21 -21 21 -6 0 -3 -7 5 -16
18 -18 21 -34 6 -34 -5 0 -10 8 -10 18 -1 16 -1 16 -11 -1 -6 -9 -15 -15 -21
-11 -7 4 -6 9 3 15 7 4 10 12 5 16 -5 4 -11 2 -13 -5 -3 -6 -10 -9 -16 -5 -7
4 -6 0 1 -10 8 -9 11 -20 9 -24 -3 -5 3 -9 13 -9 10 0 16 4 14 8 -7 11 8 10
26 -2 12 -7 10 -11 -10 -18 -20 -8 -15 -9 27 -8 45 1 50 3 42 19 -11 19 -29
23 -29 6 0 -5 -5 -7 -11 -4 -14 9 -5 17 26 20 16 2 23 -1 19 -7 -5 -7 -2 -8 6
-3 8 5 18 1 27 -10 13 -18 48 -32 38 -15 -3 5 -1 11 5 15 16 10 11 21 -11 22
-16 2 -18 -1 -9 -12 8 -9 8 -15 0 -20 -6 -4 -9 -1 -8 6 2 7 -8 18 -22 26 -14
7 -19 13 -10 13 13 0 13 1 0 10 -13 8 -13 10 -1 10 12 0 12 3 3 12 -15 15 -16
28 -2 28 6 0 9 -3 8 -7 -2 -5 2 -8 7 -8 6 0 9 3 8 6 -1 3 4 6 12 6 8 0 12 -4
9 -8 -2 -4 0 -10 5 -13 5 -3 11 0 14 7 5 14 133 17 155 3 7 -4 12 -3 12 2 0 5
19 8 43 7 23 -2 48 2 54 7 9 7 15 5 19 -6 6 -15 27 -24 22 -8 -2 4 2 7 7 7 6
0 9 -5 9 -11 -2 -13 21 -13 33 1 4 4 1 5 -7 0 -12 -6 -12 -5 -3 5 7 7 19 10
30 6 20 -8 29 -5 25 7 -1 4 10 1 25 -6 16 -8 34 -12 42 -9 8 3 11 0 7 -7 -4
-6 -2 -11 3 -11 6 0 11 4 11 8 0 5 7 9 15 9 8 0 15 -4 15 -9 0 -5 4 -7 9 -3 5
3 13 0 17 -6 4 -8 3 -9 -4 -5 -7 4 -12 2 -12 -3 0 -13 17 -14 25 -2 3 5 -2 17
-11 25 -12 13 -13 16 -1 16 8 0 22 9 32 20 10 11 21 17 26 15 4 -3 10 -1 13 4
9 14 41 5 38 -10 -3 -10 0 -11 8 -3 7 7 33 10 63 8 29 -2 99 -6 157 -9 129 -6
130 -6 130 -16 0 -5 6 -6 14 -3 16 6 106 -34 106 -47 0 -5 9 -9 20 -9 11 0 20
-4 20 -10 0 -5 9 -10 19 -10 24 0 36 -16 20 -26 -7 -4 -9 -3 -6 2 3 6 -3 10
-13 11 -11 1 -22 -2 -25 -8 -4 -5 2 -6 11 -2 13 5 15 3 9 -8 -4 -8 -5 -11 0
-7 4 4 15 2 23 -5 10 -8 13 -8 9 -1 -4 7 0 15 9 18 8 3 13 2 10 -3 -3 -5 1
-12 10 -15 8 -3 12 -11 8 -17 -5 -8 -3 -9 5 -4 8 4 18 -1 27 -14 8 -12 22 -21
30 -21 8 0 14 -7 14 -15 0 -8 4 -15 9 -15 13 0 102 -141 95 -151 -3 -5 -1 -9
4 -9 12 0 48 -97 63 -167 6 -29 14 -53 18 -53 5 0 6 -11 3 -25 -3 -16 2 -33
13 -45 9 -10 14 -23 11 -29 -3 -5 -1 -11 5 -13 7 -2 12 -18 13 -35 1 -30 13
-38 28 -18 22 29 -1 271 -33 369 -44 131 -148 314 -178 315 -8 1 -11 4 -7 8 7
7 -92 113 -107 113 -4 0 -18 9 -30 20 -31 29 -112 67 -182 86 -81 21 -403 29
-460 10z m-767 -191 c-3 -3 -9 2 -12 12 -6 14 -5 15 5 6 7 -7 10 -15 7 -18z"/>
<path d="M4923 6578 c-22 -28 -24 -38 -8 -32 9 4 13 9 11 12 -3 3 -1 11 5 19
6 7 9 13 6 13 -2 0 -9 -6 -14 -12z"/>
<path d="M4033 6545 c0 -8 4 -12 9 -9 4 3 8 9 8 15 0 5 -4 9 -8 9 -5 0 -9 -7
-9 -15z"/>
<path d="M4606 6552 c-2 -4 -1 -14 4 -22 7 -11 9 -9 7 8 -1 24 -3 26 -11 14z"/>
<path d="M4094 6542 c7 -12 -5 -16 -33 -13 -7 2 -10 -3 -6 -9 4 -6 13 -9 21
-6 14 5 29 -9 17 -17 -5 -2 -2 -2 4 -1 7 2 17 -5 22 -14 6 -9 11 -12 11 -5 0
6 -5 15 -12 19 -7 5 -5 11 7 21 11 7 14 13 9 13 -6 0 -16 -6 -23 -12 -11 -11
-13 -10 -8 4 3 10 1 20 -5 24 -7 4 -8 3 -4 -4z"/>
<path d="M4346 6533 c-5 -12 -9 -13 -20 -4 -18 15 -39 -8 -26 -29 7 -11 10
-12 10 -2 0 8 5 10 13 5 12 -8 18 -10 39 -12 9 -1 9 -4 0 -13 -26 -26 -12 -34
53 -33 36 1 68 5 73 10 4 4 -1 5 -12 1 -14 -5 -17 -2 -12 9 3 8 1 15 -4 15 -6
0 -10 -7 -10 -16 0 -8 -4 -12 -10 -9 -14 9 -12 17 10 45 12 15 18 18 14 8 -7
-19 10 -25 21 -8 4 6 11 8 16 4 6 -3 3 -12 -8 -21 -16 -13 -16 -14 -1 -9 10 3
22 -2 27 -12 6 -9 11 -12 11 -6 0 6 -3 14 -7 18 -12 12 -12 37 0 33 7 -3 11
-11 9 -18 -2 -8 0 -11 4 -7 4 4 12 3 19 -2 8 -7 12 -5 12 5 0 8 -3 13 -5 10
-3 -3 -11 0 -18 6 -14 12 -10 29 7 29 6 0 7 -4 4 -10 -3 -5 -1 -10 4 -10 16 0
13 16 -4 30 -12 10 -15 10 -15 -1 0 -12 -2 -12 -9 0 -6 9 -10 10 -16 2 -5 -9
-11 -9 -22 0 -11 10 -16 10 -22 0 -10 -16 -22 -16 -32 1 -7 10 -9 10 -9 0 0
-8 -5 -10 -12 -5 -24 14 -66 12 -72 -4z m69 -5 c6 -3 18 -4 27 -3 16 3 16 1 2
-21 -9 -13 -20 -21 -26 -18 -5 3 -8 -2 -6 -11 2 -10 -3 -20 -9 -22 -7 -3 -13
0 -13 7 0 6 5 8 12 4 7 -4 8 -3 4 4 -4 6 -13 9 -21 6 -8 -4 -12 -11 -8 -17 3
-6 1 -7 -6 -3 -8 5 -9 12 -2 20 13 16 0 34 -21 30 -10 -1 -20 2 -24 7 -3 5
-10 6 -16 3 -7 -4 -8 -2 -4 5 6 9 11 9 21 1 9 -7 16 -6 24 3 11 14 47 17 66 5z
m104 -1 c9 4 13 3 9 -1 -3 -4 -12 -8 -20 -10 -7 -1 -18 -5 -25 -9 -7 -5 -10
-1 -8 10 2 10 4 20 4 23 1 2 6 -1 12 -7 6 -6 19 -9 28 -6z"/>
<path d="M4353 6517 c-3 -6 -1 -7 6 -3 6 4 14 0 17 -8 3 -9 14 -16 23 -16 13
0 13 2 2 9 -8 5 -9 11 -3 15 6 4 15 -1 20 -10 8 -15 10 -15 15 0 4 9 3 15 -1
15 -4 -1 -9 0 -12 1 -17 7 -62 5 -67 -3z"/>
<path d="M4581 6534 c0 -11 3 -14 6 -6 3 7 2 16 -1 19 -3 4 -6 -2 -5 -13z"/>
<path d="M4756 6541 c-3 -5 1 -11 9 -14 9 -4 12 -1 8 9 -6 16 -10 17 -17 5z"/>
<path d="M5409 6537 c6 -8 7 -18 3 -22 -4 -5 -1 -5 6 -1 10 6 10 11 1 22 -6 8
-14 14 -16 14 -3 0 0 -6 6 -13z"/>
<path d="M4720 6520 c8 -5 20 -10 25 -10 6 0 3 5 -5 10 -8 5 -19 10 -25 10 -5
0 -3 -5 5 -10z"/>
<path d="M4790 6523 c0 -6 8 -17 18 -24 16 -13 16 -13 2 6 -8 11 -16 22 -17
24 -2 2 -3 0 -3 -6z"/>
<path d="M4830 6520 c-12 -7 -10 -9 7 -7 12 0 19 5 17 9 -6 10 -6 10 -24 -2z"/>
<path d="M4910 6526 c0 -2 7 -7 16 -10 8 -3 12 -2 9 4 -6 10 -25 14 -25 6z"/>
<path d="M5307 6505 c-14 -10 -13 -12 4 -23 11 -7 19 -8 19 -2 0 5 -5 10 -11
10 -5 0 -7 5 -3 12 5 8 11 6 20 -7 12 -16 13 -16 11 2 -1 22 -17 25 -40 8z"/>
<path d="M4020 6501 c0 -5 11 -8 25 -8 30 0 28 6 -4 12 -11 2 -21 0 -21 -4z"/>
<path d="M4587 6491 c-3 -13 0 -18 7 -15 7 3 13 11 13 19 0 22 -14 18 -20 -4z"/>
<path d="M4900 6499 c0 -5 4 -8 9 -5 11 7 33 -18 24 -27 -11 -12 -24 -7 -17 6
5 9 3 9 -7 -1 -11 -10 -11 -14 -1 -21 17 -10 -259 -21 -529 -21 -142 0 -210 4
-215 11 -4 8 -45 10 -128 7 -68 -3 -95 -2 -61 2 33 3 50 7 37 8 -13 1 -33 7
-44 13 -12 7 -18 7 -14 1 4 -7 -14 -10 -49 -10 -30 1 -58 -2 -62 -5 -3 -4 -13
-7 -22 -7 -14 0 -14 2 -1 11 10 7 -21 8 -103 5 -91 -4 -134 -11 -190 -31 -40
-14 -76 -27 -81 -28 -5 -1 -20 -12 -34 -25 -26 -23 -49 -24 -44 -3 1 7 -2 10
-8 6 -8 -5 -8 -11 0 -20 12 -14 -12 -41 -29 -31 -11 7 -63 -57 -59 -72 2 -6
-6 -18 -17 -27 -11 -9 -13 -14 -5 -10 10 4 9 2 -2 -8 -10 -8 -18 -19 -18 -26
0 -6 -5 -11 -11 -11 -5 0 -7 -4 -4 -10 3 -5 1 -10 -5 -10 -6 0 -8 -4 -5 -10 3
-5 2 -10 -4 -10 -6 0 -8 -7 -5 -15 4 -8 1 -15 -5 -15 -6 0 -8 -7 -5 -15 4 -8
1 -15 -6 -15 -7 0 -10 -6 -7 -14 3 -8 -8 -63 -24 -123 -17 -59 -30 -116 -30
-125 0 -10 -4 -20 -9 -23 -4 -3 -6 -15 -2 -27 4 -16 2 -19 -8 -13 -10 6 -11 0
-6 -30 5 -23 4 -35 -2 -31 -6 4 -8 -6 -6 -24 3 -17 1 -30 -5 -30 -6 0 -10 -8
-9 -17 3 -41 -2 -64 -14 -57 -8 5 -9 0 -6 -14 4 -12 2 -24 -3 -27 -4 -3 -6
-12 -2 -20 3 -8 0 -15 -7 -15 -7 0 -10 -8 -7 -20 3 -11 1 -18 -3 -15 -5 3 -12
-11 -16 -32 -3 -21 -12 -68 -19 -105 -6 -38 -8 -68 -4 -68 4 0 1 -12 -7 -27
-15 -30 -20 -183 -6 -183 5 0 9 -7 10 -15 1 -8 3 -22 4 -30 1 -8 5 -15 9 -15
4 0 9 -10 12 -22 11 -44 123 -144 150 -135 7 2 18 -3 26 -10 7 -8 20 -12 27
-9 8 3 14 2 14 -2 0 -9 158 -7 188 2 12 4 22 12 22 17 0 6 5 7 10 4 6 -3 10
-1 10 5 0 6 4 9 9 6 5 -3 12 1 15 10 4 9 9 14 13 11 3 -4 19 8 36 26 16 18 34
31 39 29 5 -1 7 2 4 7 -4 5 8 20 26 32 52 36 80 70 73 87 -3 9 -3 13 1 9 4 -4
16 0 26 10 20 18 25 38 6 27 -7 -4 -5 2 6 14 10 12 22 19 26 17 4 -3 13 2 20
10 11 13 10 14 -6 8 -17 -6 -17 -5 -5 10 7 9 17 14 22 11 5 -3 8 -2 7 3 -1 4
6 23 15 41 10 17 14 32 9 32 -4 0 -8 9 -9 20 -2 18 0 19 13 5 8 -8 16 -23 17
-33 0 -10 7 -19 14 -19 6 0 9 5 6 11 -4 6 9 -1 28 -17 49 -40 109 -69 125 -63
8 3 13 2 10 -3 -8 -13 31 -21 104 -21 73 0 112 8 104 21 -3 5 1 6 9 3 8 -3 22
2 31 11 9 9 16 14 16 10 0 -19 93 63 140 123 l25 32 60 -68 c60 -69 127 -118
145 -107 6 3 10 2 10 -4 0 -6 7 -7 17 -4 10 4 14 2 10 -4 -4 -6 17 -9 61 -6
69 4 117 9 117 12 0 2 11 5 24 7 35 6 111 45 139 72 7 6 17 12 22 12 5 0 15 6
22 14 12 12 14 9 14 -19 -1 -19 -5 -31 -11 -27 -9 5 13 -27 26 -38 3 -3 11
-15 18 -28 7 -12 16 -20 21 -17 5 3 12 0 16 -6 4 -8 3 -9 -4 -5 -27 16 -8 -11
69 -103 84 -99 163 -165 187 -156 7 2 11 1 8 -4 -8 -12 50 -35 69 -27 9 3 13
2 10 -4 -5 -9 58 -15 105 -11 38 4 99 24 94 32 -3 5 3 6 12 2 12 -4 15 -3 10
5 -5 8 -2 10 8 6 10 -4 16 -1 16 9 0 8 8 21 18 28 16 13 16 13 2 -6 -9 -11 0
-7 21 10 92 76 146 228 123 345 -5 23 -9 28 -16 18 -7 -9 -8 -7 -5 10 3 12 1
22 -5 22 -6 0 -8 9 -5 20 3 11 2 22 -3 25 -4 2 -13 33 -19 67 -7 35 -23 105
-37 156 -13 52 -22 98 -19 102 3 5 1 10 -4 12 -12 4 -63 226 -55 239 10 16 -5
81 -18 73 -7 -5 -9 5 -4 32 5 30 4 36 -4 24 -9 -12 -10 -9 -5 13 4 21 3 27 -6
21 -9 -5 -10 -2 -6 9 3 9 1 17 -5 19 -6 2 -11 20 -11 39 0 19 -2 28 -4 22 -5
-13 -56 73 -56 94 0 7 -3 11 -6 10 -11 -4 -101 100 -93 108 4 5 2 5 -4 2 -6
-3 -27 5 -47 19 -35 24 -46 35 -29 33 22 -4 24 3 4 17 -22 15 -32 41 -10 28 7
-4 8 -3 4 5 -12 19 -28 1 -22 -25 4 -14 2 -24 -4 -24 -6 0 -9 3 -7 8 3 4 1 16
-4 27 -7 19 -8 19 -8 -2 -1 -25 -8 -28 -31 -12 -13 10 -13 10 1 6 9 -3 16 1
16 8 0 8 -7 11 -15 7 -9 -3 -13 -1 -10 4 4 5 -4 10 -15 11 -12 0 -34 3 -49 6
-16 2 -28 0 -28 -6 0 -5 -8 -3 -17 4 -11 10 -14 10 -9 2 5 -10 -8 -13 -53 -13
-36 0 -61 4 -61 10 0 7 -6 7 -19 0 -11 -5 -27 -7 -37 -3 -12 4 -15 3 -10 -5 5
-8 -1 -12 -18 -12 -14 0 -28 5 -32 12 -5 7 -3 8 6 3 9 -5 11 -4 6 4 -4 6 -13
8 -19 4 -16 -10 -53 -15 -44 -7 8 8 -21 44 -35 44 -4 0 -8 -5 -8 -11z m817
-581 c-3 -8 -6 -5 -6 6 -1 11 2 17 5 13 3 -3 4 -12 1 -19z m170 -730 c-3 -8
-6 -5 -6 6 -1 11 2 17 5 13 3 -3 4 -12 1 -19z m-2900 -10 c-3 -8 -6 -5 -6 6
-1 11 2 17 5 13 3 -3 4 -12 1 -19z"/>
<path d="M5236 6502 c-3 -5 1 -9 9 -9 8 0 12 4 9 9 -3 4 -7 8 -9 8 -2 0 -6 -4
-9 -8z"/>
<path d="M4776 6487 c3 -10 9 -15 12 -12 3 3 0 11 -7 18 -10 9 -11 8 -5 -6z"/>
<path d="M4873 6485 c0 -8 4 -15 9 -15 4 0 8 4 8 9 0 6 -4 12 -8 15 -5 3 -9
-1 -9 -9z"/>
<path d="M5157 6493 c-10 -9 -9 -23 1 -23 5 0 9 7 9 15 0 17 -1 18 -10 8z"/>
<path d="M3976 6481 c9 -9 34 -9 34 -1 0 5 -9 8 -20 7 -10 -1 -17 -3 -14 -6z"/>
<path d="M5186 6478 c3 -4 9 -8 15 -8 5 0 9 4 9 8 0 5 -7 9 -15 9 -8 0 -12 -4
-9 -9z"/>
<path d="M4095 6470 c3 -5 8 -10 11 -10 2 0 4 5 4 10 0 6 -5 10 -11 10 -5 0
-7 -4 -4 -10z"/>
<path d="M4270 6461 c0 -6 5 -13 10 -16 6 -3 10 1 10 9 0 9 -4 16 -10 16 -5 0
-10 -4 -10 -9z"/>
<path d="M5467 6437 c3 -5 -4 -6 -18 -2 -23 7 -23 6 -5 -7 14 -11 16 -17 7
-22 -9 -6 -7 -12 6 -22 21 -16 53 -18 53 -4 0 17 17 11 22 -8 3 -10 12 -19 21
-19 9 0 14 4 11 9 -3 5 -10 5 -16 2 -7 -5 -9 0 -6 14 4 12 2 20 -3 17 -4 -3
-17 3 -28 14 -16 16 -20 17 -25 4 -3 -8 -3 -20 1 -25 3 -7 1 -8 -5 -4 -12 7
-12 33 0 52 4 6 1 11 -7 11 -8 0 -12 -5 -8 -10z"/>
<path d="M5510 6430 c6 -11 15 -20 20 -20 6 0 2 9 -7 20 -10 11 -19 20 -21 20
-1 0 2 -9 8 -20z"/>
<path d="M5588 6353 c6 -2 9 -10 6 -15 -4 -7 -2 -8 5 -4 13 9 5 26 -12 25 -9
0 -8 -2 1 -6z"/>
<path d="M5540 6324 c16 -20 28 -27 32 -20 5 7 8 3 8 -9 0 -16 2 -17 9 -6 10
15 -9 41 -32 45 -6 1 -19 6 -27 11 -8 5 -4 -5 10 -21z"/>
<path d="M5620 6218 c0 -4 4 -8 9 -8 6 0 12 4 15 8 3 5 -1 9 -9 9 -8 0 -15 -4
-15 -9z"/>
<path d="M1981 5783 c-19 -10 -44 -30 -54 -45 l-20 -27 26 -40 c17 -26 37 -43
55 -47 15 -3 34 -8 42 -11 17 -6 42 -10 123 -17 31 -3 62 -8 67 -11 6 -3 10 1
10 9 0 8 4 17 9 21 6 3 8 -4 6 -15 -3 -14 0 -18 8 -13 6 4 43 8 82 9 38 1 99
5 135 9 79 8 137 12 168 14 13 1 37 14 53 30 37 38 40 93 7 122 -22 19 -42 20
-353 25 -300 4 -333 3 -364 -13z m214 -181 c-3 -3 -11 0 -18 7 -9 10 -8 11 6
5 10 -3 15 -9 12 -12z"/>
<path d="M6285 5790 c-103 -5 -137 -16 -155 -50 -18 -34 -11 -57 30 -94 l41
-36 297 6 c163 3 307 10 320 15 13 5 27 7 31 5 10 -6 56 35 64 57 8 23 -16 73
-43 87 -22 12 -416 18 -585 10z"/>
<path d="M2281 5574 c0 -11 3 -14 6 -6 3 7 2 16 -1 19 -3 4 -6 -2 -5 -13z"/>
<path d="M1892 5450 c-43 -26 -54 -56 -35 -95 36 -71 8 -67 408 -64 385 2 396
4 429 53 24 37 20 63 -16 96 l-33 29 -360 1 c-343 0 -362 -1 -393 -20z"/>
<path d="M6195 5461 c-27 -12 -51 -41 -58 -72 -5 -19 1 -34 24 -62 l30 -37
335 0 c375 0 391 2 420 63 16 33 16 36 -6 65 -13 17 -35 35 -49 41 -32 12
-667 13 -696 2z"/>
<path d="M3725 5100 c-3 -5 -1 -10 4 -10 6 0 11 5 11 10 0 6 -2 10 -4 10 -3 0
-8 -4 -11 -10z"/>
<path d="M2795 5071 c-3 -6 -11 -9 -16 -5 -5 3 -15 2 -22 -3 -7 -5 -52 -7
-102 -5 -262 11 -2012 5 -2019 -7 -4 -5 -14 -7 -24 -4 -31 8 -153 -26 -211
-59 -124 -70 -252 -189 -305 -283 -36 -65 -74 -174 -81 -232 -3 -26 -7 -322
-10 -658 -3 -530 -2 -618 12 -672 8 -35 19 -60 24 -57 5 3 7 -1 4 -8 -6 -17
40 -109 50 -100 5 4 5 -1 2 -10 -4 -11 3 -24 21 -38 15 -12 21 -18 13 -14 -8
4 -2 -9 13 -29 16 -20 31 -37 33 -37 3 0 -1 8 -8 18 -13 15 -12 16 4 3 9 -7
17 -17 17 -22 0 -32 214 -176 305 -205 27 -9 55 -19 60 -23 6 -3 20 -4 33 -2
12 1 22 -2 22 -7 0 -5 19 -9 43 -9 23 0 119 0 212 1 192 1 2247 1 2600 0 127
0 658 -1 1180 -1 523 0 968 0 990 -1 22 -1 585 1 1250 3 1178 3 1212 4 1278
24 83 24 206 80 229 104 10 9 25 17 33 17 23 0 118 101 158 168 20 32 53 94
74 138 l38 79 2 557 c1 307 -2 560 -6 562 -5 3 -6 47 -3 97 3 56 1 90 -4 86
-6 -3 -8 9 -6 30 3 23 1 33 -6 29 -6 -4 -8 2 -5 14 3 11 0 26 -6 33 -6 8 -8
17 -4 20 3 4 0 13 -7 22 -7 8 -9 15 -6 15 4 0 1 10 -6 23 -7 12 -13 24 -14 27
-4 19 -48 105 -60 118 -53 59 -144 151 -144 145 0 -5 -7 1 -15 11 -8 11 -15
16 -15 11 0 -5 -6 -1 -12 8 -14 18 -85 57 -104 57 -7 0 -14 4 -16 9 -1 6 -14
11 -28 13 -14 2 -29 6 -35 9 -5 3 -30 7 -55 8 -24 1 -49 6 -55 10 -5 5 -48 11
-95 13 -47 3 -76 1 -65 -3 13 -5 -2 -7 -40 -7 -56 1 -57 1 -20 8 22 4 -377 7
-887 6 -509 0 -921 -4 -915 -8 9 -6 9 -8 0 -8 -6 0 -17 -17 -23 -37 -7 -21
-23 -55 -36 -75 -24 -38 -32 -74 -14 -63 6 3 10 0 10 -7 0 -9 3 -9 8 -2 7 10
104 11 147 1 11 -2 25 -1 30 4 6 4 27 4 48 0 38 -9 146 -11 1193 -16 l630 -3
72 -25 c100 -35 157 -71 228 -143 46 -47 64 -74 73 -108 6 -25 24 -72 39 -104
l27 -57 5 -575 c3 -316 2 -576 -2 -578 -5 -2 -8 -12 -8 -22 0 -40 -55 -164
-96 -217 -63 -81 -115 -121 -206 -159 l-81 -34 -1141 -5 c-1370 -6 -1878 -6
-1931 0 -22 3 -123 4 -225 3 -102 -1 -462 -3 -800 -4 -338 -1 -676 -2 -750 -2
-74 0 -612 0 -1195 1 -583 1 -1136 -2 -1230 -6 -157 -8 -174 -7 -228 12 -151
53 -258 146 -329 287 -25 49 -48 103 -52 119 -8 31 -9 1064 -1 1125 19 149 90
279 205 375 54 45 75 56 175 89 113 38 149 41 440 39 988 -7 1825 -4 1825 8 0
6 4 8 9 5 17 -11 -5 64 -23 77 -8 6 -8 10 2 14 6 2 12 9 12 14 0 6 -3 8 -7 6
-5 -3 -14 1 -21 9 -7 8 -10 14 -6 14 3 0 0 7 -7 16 -7 9 -14 23 -15 31 -3 21
-11 26 -19 14z"/>
<path d="M4518 4666 c3 -5 -2 -7 -11 -3 -10 3 -17 2 -17 -4 0 -6 -4 -8 -9 -5
-16 10 -73 -15 -67 -30 3 -7 0 -11 -7 -9 -15 6 -24 -1 -57 -40 -19 -22 -20
-26 -5 -15 19 14 19 14 6 -2 -7 -10 -20 -18 -27 -18 -8 0 -14 -7 -14 -15 0 -9
-7 -18 -15 -21 -8 -4 -12 -10 -9 -15 3 -5 1 -9 -4 -9 -5 0 -17 -11 -26 -25 -9
-14 -13 -25 -8 -25 5 0 14 10 19 23 10 20 10 19 9 -10 0 -18 -4 -33 -9 -33 -4
0 -6 -4 -3 -8 3 -5 8 -24 11 -43 10 -55 17 -48 13 14 -1 31 1 57 5 57 5 0 7
-65 5 -145 -2 -80 0 -145 4 -145 4 0 4 -7 1 -17 -4 -11 -3 -14 5 -9 7 4 10 2
7 -7 -3 -7 5 -22 17 -33 23 -19 23 -19 8 1 -14 18 -14 19 2 7 9 -8 14 -20 12
-27 -5 -13 19 -33 41 -33 5 0 11 -6 13 -14 2 -9 0 -8 -7 2 -8 11 -11 11 -11 2
0 -7 7 -15 15 -18 8 -4 12 -11 8 -17 -4 -6 0 -8 10 -4 9 3 19 2 23 -4 4 -6 11
-6 20 2 11 9 13 9 9 -2 -6 -17 68 -54 91 -45 8 3 13 2 10 -3 -8 -13 73 -43 98
-36 17 5 18 4 6 -4 -9 -6 -10 -11 -3 -11 6 0 20 -3 30 -6 15 -5 16 -4 3 6 -13
10 -12 11 3 6 10 -3 21 -6 23 -6 3 0 2 -5 -2 -12 -5 -7 -2 -9 9 -5 21 8 27
-11 29 -96 l2 -72 6 80 6 80 2 -80 c1 -52 -2 -85 -10 -93 -9 -9 -9 -15 0 -24
7 -7 12 -17 12 -23 0 -5 -4 -4 -9 4 -7 11 -10 9 -15 -7 -4 -13 -13 -19 -22
-15 -7 3 -14 1 -14 -4 0 -6 -28 -6 -72 -1 -89 11 -118 33 -118 89 0 20 5 39
12 41 15 5 1 28 -18 28 -8 0 -12 -4 -9 -10 4 -6 -6 -10 -23 -10 -19 0 -29 5
-29 16 0 10 7 14 19 11 10 -3 20 -2 22 2 3 4 -7 8 -20 9 -14 1 -27 -5 -30 -13
-5 -12 -25 -15 -93 -15 l-86 0 -3 -94 c-4 -98 2 -141 19 -131 5 3 6 -1 3 -10
-4 -11 8 -29 37 -56 24 -23 43 -45 42 -49 -1 -4 8 -16 20 -26 21 -19 21 -19 7
0 -15 19 -15 19 17 1 18 -10 30 -22 27 -27 -3 -5 -2 -8 3 -6 16 4 73 -14 73
-23 0 -4 14 -6 32 -2 23 5 29 3 23 -6 -5 -10 12 -11 76 -7 46 3 99 5 117 6 22
0 31 4 26 11 -4 8 1 9 16 4 17 -5 21 -4 15 5 -5 9 -4 11 3 6 13 -8 72 20 72
34 0 6 3 9 8 7 12 -3 63 41 66 57 1 9 6 19 11 23 4 4 5 1 1 -7 -4 -8 2 -4 13
10 11 14 19 31 16 38 -2 6 0 12 6 12 6 0 7 5 4 10 -3 6 -2 10 2 10 5 0 8 79 7
175 -1 99 2 177 7 181 5 3 7 10 3 15 -3 5 -10 7 -15 4 -5 -4 -9 -2 -9 4 0 5
-11 22 -24 38 -13 15 -22 35 -21 44 2 11 -3 16 -14 14 -24 -4 -33 5 -20 21 6
8 8 14 4 14 -4 0 -1 8 6 18 13 15 12 16 -3 3 -10 -7 -16 -17 -13 -21 4 -7 -49
15 -63 25 -1 1 4 8 13 15 13 11 14 10 9 -4 -4 -11 -1 -16 14 -16 24 0 48 25
32 35 -9 6 -14 -1 -11 -17 0 -5 -5 -8 -12 -8 -7 0 -13 9 -14 20 -1 11 2 18 8
15 5 -4 9 -1 9 5 0 7 -7 9 -16 6 -9 -3 -18 -6 -20 -6 -3 0 -3 -4 0 -9 11 -17
-19 -17 -54 0 -19 10 -31 18 -26 19 13 0 -14 30 -28 30 -7 0 -6 -4 2 -9 10 -6
9 -10 -7 -14 -12 -3 -19 -1 -15 4 3 5 -6 9 -20 9 -20 0 -24 4 -19 18 5 14 3
13 -10 -3 -10 -12 -20 -16 -24 -10 -8 10 -40 18 -80 19 -11 1 -19 5 -15 10 3
5 -1 7 -9 4 -11 -4 -15 12 -17 88 -3 90 -3 94 23 116 34 30 142 42 163 18 12
-13 13 -13 6 0 -5 12 -4 13 6 3 7 -7 15 -36 17 -65 1 -29 5 -58 7 -65 3 -6 0
-14 -7 -17 -7 -2 38 -4 98 -3 l110 1 -80 6 -80 7 105 -1 105 -1 5 29 c9 49 -4
191 -17 189 -6 -1 -14 4 -17 13 -3 8 -2 12 4 9 6 -3 10 1 10 9 0 10 -6 13 -15
10 -11 -5 -13 -2 -8 12 5 13 3 16 -9 11 -10 -3 -25 4 -39 19 -12 13 -20 24
-16 24 3 0 16 -10 28 -22 12 -13 20 -17 17 -9 -2 7 -26 29 -53 49 -28 20 -43
28 -35 18 14 -18 14 -18 -7 -6 -12 8 -19 18 -16 23 3 5 -4 6 -17 2 -16 -5 -20
-4 -15 4 5 8 -1 10 -21 5 -15 -4 -25 -3 -21 2 3 5 -58 9 -143 9 -88 0 -146 -4
-142 -9z m175 -233 c-13 -2 -35 -2 -50 0 -16 2 -5 4 22 4 28 0 40 -2 28 -4z
m-258 -433 c3 -5 1 -10 -4 -10 -6 0 -11 5 -11 10 0 6 2 10 4 10 3 0 8 -4 11
-10z m120 -68 c-3 -3 -11 0 -18 7 -9 10 -8 11 6 5 10 -3 15 -9 12 -12z"/>
<path d="M4140 4664 c-8 -2 -149 -5 -312 -6 -163 -2 -300 -7 -304 -11 -10 -10
-9 -456 1 -666 4 -80 3 -141 -1 -138 -5 3 -9 -111 -9 -254 0 -142 4 -259 8
-259 5 0 6 -3 4 -7 -3 -5 148 -10 334 -12 256 -3 339 -1 339 8 0 7 3 10 8 8 4
-3 8 41 10 96 1 56 4 111 6 122 2 11 -2 26 -8 34 -9 12 -8 13 3 7 9 -6 12 -4
9 5 -3 9 -22 15 -54 16 -27 1 -41 -1 -32 -5 10 -4 -70 -7 -177 -7 l-195 0 0
129 c0 71 3 127 6 123 4 -3 12 0 20 7 10 11 46 13 163 9 l151 -5 8 24 c9 22
14 77 14 146 0 17 4 32 9 32 5 0 7 6 5 13 -3 6 -7 24 -10 40 -5 19 -13 27 -28
27 -21 0 -21 0 -2 -16 18 -15 18 -15 -3 -5 -12 6 -86 11 -168 11 l-147 0 4
122 c4 118 5 123 28 135 17 9 82 12 217 10 l192 -2 -3 28 c-2 15 0 27 5 27 5
0 14 10 20 23 12 22 12 22 -9 4 -19 -18 -20 -18 -18 0 0 10 8 21 16 25 12 5
11 7 -3 7 -15 1 -18 8 -17 39 1 20 1 55 -1 77 -2 32 -4 28 -9 -25 l-7 -65 -2
70 c-1 39 -5 64 -8 58 -2 -7 -14 -13 -24 -13 -11 0 -17 5 -14 10 3 6 5 9 3 9
-2 -1 -10 -3 -18 -5z m67 -226 c-2 -13 -4 -3 -4 22 0 25 2 35 4 23 2 -13 2
-33 0 -45z"/>
<path d="M5415 4660 c-4 -7 -19 -9 -37 -5 -23 6 -29 4 -23 -6 6 -9 3 -11 -8
-6 -10 4 -17 2 -17 -5 0 -7 -5 -6 -15 2 -13 11 -14 10 -9 -5 5 -13 4 -16 -4
-11 -7 4 -12 3 -12 -3 0 -6 -7 -7 -17 -4 -12 5 -14 3 -8 -7 6 -9 4 -11 -5 -5
-8 5 -18 1 -27 -10 -7 -11 -13 -15 -13 -10 0 18 -53 -69 -71 -115 -15 -40 -17
-73 -12 -275 2 -127 5 -328 6 -447 1 -120 6 -218 10 -218 5 0 6 -4 3 -9 -4 -5
-2 -11 3 -13 5 -1 11 -10 13 -18 2 -8 13 -23 26 -33 12 -10 20 -22 17 -26 -2
-5 5 -17 17 -27 14 -12 18 -13 13 -4 -5 8 6 3 24 -12 18 -16 37 -28 42 -28 6
0 7 -5 3 -12 -4 -6 -3 -8 4 -5 13 9 44 -2 37 -13 -3 -4 5 -8 18 -9 222 -8 297
-8 297 0 0 6 4 8 9 5 13 -9 42 4 35 15 -3 5 -1 8 4 7 23 -7 96 51 130 102 l37
55 0 122 c0 68 -5 126 -10 130 -6 5 -63 7 -127 5 l-118 -4 0 -72 c0 -72 0 -73
-33 -91 -38 -20 -133 -17 -147 4 -4 7 -11 13 -16 13 -35 0 -36 8 -32 370 3
353 3 355 27 389 22 33 26 34 90 36 55 1 70 -2 89 -19 20 -20 22 -31 22 -125
0 -87 2 -103 16 -103 8 0 12 5 9 10 -4 6 33 10 104 10 l110 0 3 130 c2 72 -1
130 -6 130 -4 0 -6 9 -3 20 3 11 2 18 -3 15 -12 -7 -26 27 -29 68 0 10 -6 15
-11 12 -8 -5 -7 -12 2 -23 12 -15 11 -16 -4 -4 -9 8 -15 19 -12 27 3 7 0 16
-7 21 -8 5 -10 3 -4 -7 8 -12 6 -12 -8 0 -18 15 -23 26 -7 16 6 -3 10 2 10 11
0 10 -3 14 -6 11 -4 -3 -18 3 -32 13 -27 22 -47 26 -36 8 4 -7 3 -8 -4 -4 -6
4 -9 12 -6 20 6 16 4 17 -152 23 -93 3 -134 1 -139 -7z m228 -7 c-7 -2 -21 -2
-30 0 -10 3 -4 5 12 5 17 0 24 -2 18 -5z"/>
<path d="M6215 4660 c-4 -7 -19 -9 -37 -5 -21 5 -28 4 -24 -4 4 -7 1 -9 -8 -5
-35 13 -142 -69 -151 -116 -2 -13 -10 -27 -16 -31 -6 -4 -8 -16 -4 -30 5 -19
4 -21 -4 -9 -9 13 -11 12 -12 -5 0 -11 -2 -30 -5 -42 -2 -12 1 -25 6 -28 15
-9 12 -38 -2 -29 -10 5 -10 4 -1 -6 7 -8 8 -21 4 -34 -7 -19 -7 -152 0 -501 3
-133 3 -136 9 -55 l6 85 1 -95 c1 -52 -2 -121 -6 -153 -4 -33 -3 -61 2 -64 5
-3 7 -15 5 -27 -3 -12 2 -28 9 -35 8 -7 12 -18 10 -24 -2 -6 5 -19 15 -29 10
-10 16 -23 13 -27 -3 -5 16 -27 42 -48 60 -50 79 -61 69 -42 -4 8 -1 6 8 -5 8
-10 19 -15 25 -11 6 3 11 1 11 -5 0 -6 5 -8 10 -5 6 3 15 3 22 -1 7 -5 29 -7
50 -5 22 1 38 -2 38 -8 0 -6 20 -11 48 -10 26 0 64 -3 86 -6 30 -6 37 -5 31 5
-6 10 -1 11 19 6 16 -4 26 -2 26 4 0 6 4 8 10 5 22 -14 127 60 164 117 22 33
38 88 25 88 -5 0 -9 5 -9 11 0 5 5 7 10 4 7 -4 9 10 8 38 -2 25 -6 43 -9 41
-3 -1 -5 197 -4 441 1 244 -2 450 -6 457 -5 7 -9 9 -9 3 0 -5 -7 1 -16 13 -8
12 -13 26 -10 31 3 5 -2 15 -12 22 -16 13 -16 13 -2 -6 14 -19 14 -19 -2 -6
-10 7 -15 17 -12 23 7 11 -15 40 -26 33 -5 -3 -11 3 -15 14 -3 11 -13 22 -21
25 -10 4 -13 1 -9 -7 4 -6 -1 -3 -10 8 -9 11 -23 19 -31 17 -8 -2 -14 2 -14 8
0 6 -4 8 -10 5 -5 -3 -10 -3 -10 2 0 4 -33 8 -72 8 -40 0 -101 4 -135 8 -42 5
-63 4 -68 -3z m200 -278 c6 -4 16 -17 23 -29 15 -27 17 -56 2 -33 -6 10 -9
-47 -9 -170 1 -108 4 -175 9 -160 5 15 7 -32 7 -112 -1 -76 -4 -138 -7 -138
-5 0 -5 -17 6 -125 4 -33 3 -56 -2 -52 -4 4 -7 24 -7 45 l2 37 -10 -33 c-6
-21 -6 -39 1 -52 8 -15 8 -20 -2 -20 -7 -1 -32 -5 -55 -9 -23 -5 -41 -5 -38
-2 2 4 -16 12 -40 19 -33 9 -46 18 -49 34 -3 13 -7 184 -10 382 -4 295 -3 365
9 392 l14 34 73 0 c40 0 78 -4 83 -8z m-360 -1012 c10 -11 16 -20 13 -20 -3 0
-13 9 -23 20 -10 11 -16 20 -13 20 3 0 13 -9 23 -20z"/>
<path d="M2297 4650 c-20 -4 -39 -9 -42 -12 -3 -2 -4 -92 -3 -199 3 -306 -3
-1152 -8 -1170 -3 -13 1 -16 23 -13 25 4 26 3 8 -6 -18 -9 -17 -10 5 -5 14 2
39 5 55 5 20 0 26 3 17 9 -8 4 21 6 65 4 56 -3 74 -1 63 6 -13 9 -13 11 3 11
9 0 17 5 17 11 0 5 5 7 10 4 6 -4 9 25 9 82 -2 73 -3 81 -10 48 -5 -29 -3 358
4 560 0 6 7 17 15 25 13 12 14 10 10 -13 -3 -17 -1 -24 5 -20 6 4 8 0 4 -11
-4 -9 0 -47 9 -84 23 -103 25 -107 36 -91 7 10 7 8 3 -8 -4 -14 -2 -23 4 -23
6 0 10 -3 9 -7 0 -5 1 -15 5 -23 22 -59 76 -273 71 -282 -4 -7 -2 -8 4 -4 8 5
13 -1 14 -16 2 -37 3 -42 10 -54 4 -6 6 -21 3 -33 -2 -13 0 -19 6 -15 6 3 9
-2 7 -12 -3 -16 3 -17 47 -14 28 2 69 4 93 5 23 0 42 3 42 7 0 5 5 7 12 5 15
-3 59 125 61 179 1 23 6 39 11 36 5 -3 7 5 4 16 -4 14 -2 20 5 15 6 -4 8 2 5
15 -4 14 -2 20 5 15 6 -4 8 0 4 10 -3 10 -2 17 3 17 5 0 7 7 4 15 -4 8 -1 15
5 15 6 0 8 7 4 17 -4 11 -3 14 5 9 11 -6 20 18 37 99 4 17 15 49 26 72 10 24
19 50 19 58 0 12 18 23 21 13 8 -32 8 -142 0 -152 -10 -12 -9 -105 3 -426 l1
-35 100 2 c55 1 114 4 130 8 l30 7 1 371 c0 205 -3 345 -6 312 -4 -33 -7 72
-8 233 0 161 3 290 7 288 4 -3 8 1 8 9 0 8 -4 12 -9 9 -4 -3 -8 19 -8 49 0 41
-4 56 -16 61 -24 9 -31 7 -14 -4 10 -7 -30 -10 -122 -10 -104 0 -138 -3 -138
-12 0 -10 -2 -10 -9 0 -6 10 -10 4 -15 -18 -3 -18 -3 -37 1 -43 3 -5 1 -7 -4
-4 -12 7 -26 -20 -18 -33 3 -4 -2 -11 -11 -14 -10 -4 -14 -14 -11 -26 3 -10
-2 -25 -10 -31 -8 -7 -13 -20 -10 -29 2 -8 -3 -22 -10 -29 -9 -8 -13 -25 -11
-42 3 -15 1 -26 -3 -23 -10 6 -22 -33 -14 -46 3 -5 1 -10 -5 -10 -6 0 -8 -4
-5 -10 3 -5 2 -10 -2 -10 -5 0 -9 -10 -10 -22 -1 -11 -7 -24 -13 -28 -6 -4 -8
-14 -4 -23 4 -10 1 -17 -6 -17 -7 0 -10 -7 -6 -15 3 -8 1 -15 -4 -15 -5 0 -8
-12 -8 -27 0 -16 -14 -62 -31 -105 -17 -42 -31 -81 -31 -87 0 -19 -16 -12 -30
14 -8 16 -16 21 -20 14 -5 -6 -9 -2 -13 10 -3 14 -1 19 6 14 7 -4 8 0 3 13 -5
10 -15 38 -23 62 -8 23 -19 39 -25 36 -6 -4 -8 1 -4 13 8 25 -3 55 -17 46 -6
-4 -7 -1 -2 6 11 18 -56 235 -68 219 -5 -8 -7 -3 -3 13 4 17 1 31 -9 39 -8 7
-15 18 -15 24 0 6 5 4 11 -4 8 -12 9 -11 5 5 -25 92 -49 155 -57 149 -6 -3 -7
5 -3 22 5 18 3 25 -4 20 -6 -3 -12 0 -14 6 -5 15 -206 20 -271 8z m233 -606
c0 -8 -4 -14 -10 -14 -5 0 -10 9 -10 21 0 11 5 17 10 14 6 -3 10 -13 10 -21z"/>
<path d="M7299 4656 c0 -1 -2 -12 -5 -26 -3 -19 -2 -21 6 -10 6 10 9 -68 8
-235 -2 -205 -3 -227 -8 -125 -4 85 -6 31 -6 -165 0 -168 2 -250 6 -195 6 89
6 86 8 -58 1 -89 -2 -151 -7 -148 -5 4 -7 -44 -5 -114 l4 -120 -26 -11 c-37
-14 -127 6 -161 36 l-27 22 3 573 c2 531 1 572 -14 566 -9 -3 -68 -6 -131 -6
l-114 0 -1 -62 c-1 -50 -3 -57 -9 -33 -4 17 -8 -61 -8 -175 0 -114 4 -192 8
-175 4 17 8 -51 8 -155 -1 -102 -4 -169 -8 -150 -4 19 -6 -80 -4 -220 2 -166
7 -254 13 -253 6 2 8 -4 5 -11 -5 -14 21 -76 32 -76 3 0 2 5 -2 12 -4 7 -3 8
5 4 6 -4 9 -11 6 -16 -6 -9 33 -60 46 -60 6 0 7 5 3 12 -5 7 -3 8 5 4 7 -5 10
-10 7 -14 -10 -9 58 -53 76 -48 10 2 16 -1 15 -8 -1 -6 9 -10 26 -9 18 1 25
-2 21 -9 -5 -7 2 -9 20 -4 16 4 25 3 22 -2 -3 -6 5 -12 19 -14 13 -3 22 -1 19
3 -3 5 0 9 5 9 6 0 11 -5 11 -11 0 -7 11 -8 31 -4 18 4 29 3 26 -2 -3 -5 23
-9 58 -9 38 -1 62 3 58 9 -3 5 3 6 16 2 12 -4 21 -2 21 4 0 6 6 8 13 5 7 -2
21 3 32 12 11 8 14 13 8 9 -24 -12 -13 3 15 21 23 15 25 15 13 1 -20 -25 -6
-21 24 7 15 14 24 29 21 35 -4 5 -1 13 5 17 8 4 9 3 5 -4 -4 -7 -5 -12 -2 -12
2 0 14 16 26 36 21 33 23 47 22 202 0 92 3 193 7 225 4 31 3 57 -1 57 -4 0 -8
52 -8 115 0 85 3 115 13 115 8 0 7 4 -3 10 -13 9 -13 10 0 10 13 0 13 1 0 10
-8 5 -10 10 -4 10 15 0 14 370 -1 370 -7 0 -7 3 0 8 13 9 18 35 5 27 -6 -4
-10 26 -10 88 l0 95 -47 6 c-36 5 -208 6 -214 2z m124 -13 c-7 -2 -19 -2 -25
0 -7 3 -2 5 12 5 14 0 19 -2 13 -5z"/>
<path d="M1713 4643 c-102 -3 -123 -6 -123 -19 0 -8 -4 -13 -9 -10 -7 5 -20
-31 -34 -101 -3 -13 -1 -25 4 -29 5 -3 2 -16 -7 -29 -9 -14 -14 -32 -10 -40 3
-8 1 -15 -5 -15 -6 0 -7 -4 -4 -10 3 -5 2 -10 -4 -10 -5 0 -8 -9 -6 -20 2 -11
-1 -22 -6 -26 -5 -3 -7 -15 -3 -26 4 -14 2 -18 -5 -14 -6 4 -11 5 -11 2 0 -3
-9 -53 -21 -112 -11 -58 -18 -109 -15 -112 4 -3 -1 -16 -10 -30 -8 -13 -13
-26 -10 -30 3 -3 -1 -16 -9 -28 -18 -28 -27 -79 -29 -161 0 -35 -5 -63 -9 -63
-5 0 -5 -4 -2 -10 3 -5 0 -10 -7 -10 -9 0 -9 -3 2 -10 12 -8 12 -10 1 -10 -8
0 -11 -7 -8 -20 3 -11 1 -20 -5 -20 -5 0 -6 -9 -3 -20 4 -12 2 -20 -5 -20 -8
0 -10 -9 -6 -24 3 -14 1 -28 -4 -31 -6 -4 -8 -11 -4 -16 3 -5 1 -16 -5 -23 -6
-7 -9 -21 -5 -30 4 -9 1 -16 -6 -16 -7 0 -10 -7 -6 -16 4 -9 1 -23 -5 -31 -7
-7 -9 -16 -7 -19 3 -3 2 -22 -4 -42 -13 -56 -19 -85 -19 -104 0 -10 -4 -18 -8
-18 -4 0 -8 -21 -9 -47 0 -26 -5 -49 -12 -51 -8 -3 -7 -9 2 -20 11 -13 11 -15
-2 -7 -13 7 -13 6 -1 -6 10 -10 15 -11 18 -2 3 8 19 10 50 6 35 -4 44 -3 38 7
-6 10 0 11 28 6 20 -4 38 -2 41 3 4 5 23 7 43 4 24 -4 34 -3 30 4 -4 6 0 14 9
17 10 4 13 2 8 -6 -5 -7 -3 -8 5 -3 8 4 10 17 6 32 -4 18 -2 23 6 17 9 -5 10
1 5 20 -4 18 -3 25 3 22 6 -4 15 12 21 36 6 24 13 48 15 55 2 7 0 15 -5 18 -6
4 -10 12 -10 18 0 7 4 6 10 -3 8 -12 10 -10 11 10 1 14 2 31 2 38 -1 8 10 11
33 9 18 -2 35 0 37 6 1 5 31 9 65 9 34 0 60 3 57 8 -3 4 13 7 34 6 37 -1 39
-3 34 -27 -3 -16 1 -30 11 -38 11 -9 14 -22 9 -39 -4 -18 -3 -23 6 -18 9 6 10
0 5 -20 -5 -20 -4 -25 6 -19 9 5 10 2 5 -14 -4 -13 -2 -21 5 -21 7 0 9 -8 5
-20 -4 -11 -2 -20 4 -20 6 0 8 -7 5 -15 -5 -11 1 -15 24 -15 17 0 34 5 37 10
4 7 27 8 56 5 34 -4 49 -2 49 6 0 7 11 9 30 6 19 -4 30 -2 30 4 0 7 11 9 25 7
22 -5 25 -2 25 26 0 41 -17 98 -31 107 -7 4 -12 21 -12 38 0 17 -4 31 -9 31
-5 0 -6 11 -4 25 3 14 1 23 -4 20 -5 -3 -6 12 -4 32 4 29 3 34 -5 23 -9 -12
-11 -11 -12 10 -1 14 -1 35 0 48 1 12 -3 22 -9 22 -7 0 -9 8 -5 19 3 11 1 22
-5 26 -5 3 -10 14 -9 23 0 14 2 13 10 -3 7 -16 8 -14 5 10 -14 97 -18 109 -27
94 -8 -10 -9 -8 -4 8 9 31 -5 99 -16 81 -6 -9 -9 -9 -9 -1 0 6 4 14 9 17 5 3
3 23 -5 43 -7 21 -14 52 -15 68 -1 30 -1 30 -9 5 -7 -23 -8 -23 -9 -3 -1 12
-4 30 -7 40 -5 15 -4 16 6 3 10 -13 11 -12 6 3 -3 10 -6 23 -6 28 0 6 -5 7
-11 3 -9 -5 -10 1 -5 20 4 18 3 25 -3 21 -7 -4 -9 6 -5 27 4 26 3 30 -6 18 -9
-12 -10 -8 -5 19 7 34 -13 130 -24 113 -3 -6 -6 11 -7 36 -1 57 -22 125 -36
116 -6 -4 -8 1 -4 14 10 29 -14 118 -26 100 -7 -9 -8 -4 -3 15 4 20 2 27 -5
22 -7 -4 -10 0 -8 11 4 21 9 21 -149 17z m47 -693 c12 -52 27 -121 34 -152
l12 -57 -40 2 c-23 2 -55 0 -73 -4 -30 -6 -31 -6 -35 32 -2 22 0 39 5 39 5 0
6 12 3 26 -4 15 -3 23 3 20 9 -6 19 32 37 129 6 36 22 70 30 62 1 -1 12 -45
24 -97z"/>
<path d="M670 4628 c0 -6 -7 -8 -15 -4 -8 3 -15 1 -15 -5 0 -6 -4 -7 -10 -4
-9 6 -70 -21 -70 -31 0 -3 5 -2 12 2 7 4 8 3 4 -4 -4 -6 -12 -9 -19 -7 -24 10
-107 -84 -110 -125 -1 -11 -4 -20 -8 -20 -4 0 -7 -10 -7 -22 0 -13 -1 -207 -1
-431 0 -225 -4 -406 -8 -404 -14 9 -16 -308 -3 -348 6 -19 16 -33 21 -30 5 4
6 0 4 -8 -18 -45 117 -144 180 -133 22 4 26 3 15 -4 -11 -7 6 -10 56 -10 86 0
186 19 177 33 -4 6 -1 7 6 3 16 -11 83 3 76 14 -3 6 1 7 9 4 9 -3 16 -1 16 5
0 6 6 8 13 5 7 -2 23 9 35 26 13 17 27 28 33 25 5 -4 8 -1 7 7 -2 7 3 12 10
10 8 -1 11 1 8 6 -3 5 20 30 50 57 40 34 54 53 51 66 -3 12 -1 17 6 12 7 -4 8
0 4 11 -4 10 -7 156 -7 326 l0 308 -38 -2 c-20 -1 -43 -5 -50 -10 -8 -4 -58
-8 -113 -9 -54 0 -99 -4 -99 -9 0 -4 -18 -8 -40 -8 l-40 0 5 -112 c6 -136 11
-158 37 -158 11 0 16 4 12 11 -4 8 4 9 27 4 19 -4 35 -8 37 -10 1 -1 3 -55 3
-118 0 -117 -10 -157 -39 -157 -7 0 -10 -4 -7 -10 6 -9 -8 -15 -29 -11 -5 1
-12 -3 -17 -10 -4 -6 -30 -14 -58 -17 -46 -4 -54 -2 -76 22 l-25 27 6 407 c7
559 5 524 23 544 42 45 153 53 198 14 26 -23 28 -29 31 -120 4 -96 4 -96 30
-97 24 -1 23 -3 -8 -10 -25 -6 -15 -7 35 -4 39 3 86 5 105 6 29 0 31 2 15 9
-15 7 -9 9 26 9 28 1 49 6 51 14 13 34 -7 263 -25 285 -5 7 -7 15 -4 19 4 3
-1 12 -11 20 -9 8 -11 11 -4 8 11 -6 12 -3 4 11 -16 29 -64 70 -99 84 -18 7
-30 16 -27 21 3 5 2 8 -3 7 -13 -3 -53 13 -53 22 0 4 -67 8 -150 8 -95 0 -150
-3 -150 -10z"/>
<path d="M3402 4610 c0 -19 2 -27 5 -17 2 9 2 25 0 35 -3 9 -5 1 -5 -18z"/>
<path d="M7637 4626 c-4 -10 -12 -14 -19 -10 -10 6 -10 4 0 -8 10 -13 10 -17
0 -20 -10 -4 -10 -8 -1 -19 7 -9 9 -20 3 -29 -6 -9 -4 -20 3 -29 10 -12 9 -13
-3 -6 -12 7 -13 6 -3 -6 6 -8 12 -18 12 -24 0 -5 3 -28 6 -50 4 -22 7 -51 8
-64 1 -23 2 -23 104 -19 l103 4 2 -81 1 -80 7 65 c5 53 7 43 7 -55 0 -89 -2
-106 -7 -65 -5 44 -7 32 -7 -55 0 -69 2 -99 7 -80 4 17 8 -163 9 -398 0 -236
-3 -426 -7 -423 -5 3 -8 -20 -8 -49 0 -43 4 -55 16 -56 8 0 24 -3 35 -5 11 -3
68 -6 127 -9 l106 -4 -3 24 c-1 14 2 22 6 19 5 -3 9 -1 9 5 0 5 -6 12 -12 14
-10 4 -10 6 0 6 8 1 12 23 12 77 0 57 -3 73 -12 68 -10 -6 -10 -5 -1 7 10 12
10 18 0 29 -9 10 -9 11 1 6 9 -6 12 2 10 33 -2 23 -6 41 -10 41 -3 0 -6 73 -7
163 0 101 3 155 9 142 5 -13 9 24 9 105 1 84 -2 120 -9 110 -8 -12 -10 -10
-10 8 0 13 4 21 8 18 4 -2 7 87 7 198 -1 200 -1 203 19 199 17 -4 18 -3 6 6
-11 8 -3 11 37 11 28 0 54 -4 57 -9 3 -4 21 -3 40 3 l35 10 3 77 c2 43 0 75
-4 72 -5 -2 -8 17 -8 42 0 31 4 44 11 39 7 -4 10 1 7 11 -1 10 -10 20 -18 22
-13 4 -13 3 0 -6 12 -9 9 -11 -15 -11 -20 0 -26 3 -17 9 10 6 7 10 -12 13 -14
3 -23 1 -20 -3 3 -5 -2 -9 -11 -9 -9 0 -14 4 -11 8 2 4 -25 9 -62 9 -37 1
-168 6 -292 11 -144 6 -227 6 -231 -1 -4 -5 -8 -4 -11 4 -3 9 -6 8 -11 -5z
m20 -248 c-3 -7 -5 -2 -5 12 0 14 2 19 5 13 2 -7 2 -19 0 -25z m210 -340 c-3
-7 -5 -2 -5 12 0 14 2 19 5 13 2 -7 2 -19 0 -25z m270 -180 c-3 -8 -6 -5 -6 6
-1 11 2 17 5 13 3 -3 4 -12 1 -19z m0 -40 c-3 -8 -6 -5 -6 6 -1 11 2 17 5 13
3 -3 4 -12 1 -19z"/>
<path d="M7293 4530 c0 -36 2 -50 4 -32 2 17 2 47 0 65 -2 17 -4 3 -4 -33z"/>
<path d="M7573 4535 c0 -22 2 -30 4 -17 2 12 2 30 0 40 -3 9 -5 -1 -4 -23z"/>
<path d="M7292 4410 c0 -14 2 -19 5 -12 2 6 2 18 0 25 -3 6 -5 1 -5 -13z"/>
<path d="M4282 4265 c0 -16 2 -22 5 -12 2 9 2 23 0 30 -3 6 -5 -1 -5 -18z"/>
<path d="M4282 4200 c0 -19 2 -27 5 -17 2 9 2 25 0 35 -3 9 -5 1 -5 -18z"/>
<path d="M4890 4211 c0 -5 5 -13 10 -16 6 -3 10 -2 10 4 0 5 -4 13 -10 16 -5
3 -10 2 -10 -4z"/>
<path d="M4835 4199 c-19 -9 -19 -9 2 -5 12 2 24 -1 27 -8 3 -8 5 -8 5 1 1 17
-11 22 -34 12z"/>
<path d="M5763 4163 c15 -2 37 -2 50 0 12 2 0 4 -28 4 -27 0 -38 -2 -22 -4z"/>
<path d="M4886 4145 c-3 -8 -1 -15 4 -15 6 0 10 7 10 15 0 8 -2 15 -4 15 -2 0
-6 -7 -10 -15z"/>
<path d="M6812 4140 c0 -14 2 -19 5 -12 2 6 2 18 0 25 -3 6 -5 1 -5 -13z"/>
<path d="M4846 4136 c3 -8 12 -17 20 -20 11 -4 12 -2 1 14 -14 23 -29 27 -21
6z"/>
<path d="M6811 4094 c0 -11 3 -14 6 -6 3 7 2 16 -1 19 -3 4 -6 -2 -5 -13z"/>
<path d="M6811 4034 c0 -11 3 -14 6 -6 3 7 2 16 -1 19 -3 4 -6 -2 -5 -13z"/>
<path d="M4995 3980 c3 -5 8 -10 11 -10 2 0 4 5 4 10 0 6 -5 10 -11 10 -5 0
-7 -4 -4 -10z"/>
<path d="M6811 3944 c0 -11 3 -14 6 -6 3 7 2 16 -1 19 -3 4 -6 -2 -5 -13z"/>
<path d="M7851 3944 c0 -11 3 -14 6 -6 3 7 2 16 -1 19 -3 4 -6 -2 -5 -13z"/>
<path d="M7851 3904 c0 -11 3 -14 6 -6 3 7 2 16 -1 19 -3 4 -6 -2 -5 -13z"/>
<path d="M4356 3425 c4 -8 11 -15 16 -15 6 0 5 6 -2 15 -7 8 -14 15 -16 15 -2
0 -1 -7 2 -15z"/>
<path d="M3010 3213 c-14 -3 -33 -14 -43 -24 -10 -11 -21 -17 -26 -15 -4 3 -8
-4 -8 -15 -1 -12 3 -17 9 -13 7 4 8 2 4 -5 -4 -6 -11 -9 -16 -6 -22 14 -26
-63 -4 -91 8 -10 12 -13 8 -5 -5 10 -3 12 5 7 7 -5 10 -14 7 -22 -3 -7 0 -16
6 -20 7 -5 8 -2 3 6 -5 9 -4 11 3 6 7 -4 12 -14 12 -22 0 -10 14 -14 54 -14
45 0 58 4 70 22 20 28 20 52 0 82 -8 13 -11 26 -7 29 5 3 10 19 11 35 2 22 -4
32 -23 42 -14 7 -25 17 -25 22 0 4 -3 7 -7 7 -5 -1 -19 -4 -33 -6z m48 -86 c7
-5 10 -12 7 -15 -2 -3 -11 1 -19 7 -12 10 -16 8 -21 -9 -4 -12 -4 -32 -1 -45
6 -22 4 -24 -16 -16 -13 5 -23 15 -23 22 0 8 -4 17 -9 21 -5 3 -2 18 8 33 17
27 42 27 74 2z m39 -79 c-3 -8 -6 -5 -6 6 -1 11 2 17 5 13 3 -3 4 -12 1 -19z"/>
<path d="M4567 3203 c-12 -15 -15 -37 -14 -110 1 -50 5 -94 9 -98 3 -4 16 -4
28 0 21 7 22 11 17 101 -3 51 -10 100 -14 109 -8 14 -11 14 -26 -2z"/>
<path d="M5195 3210 c18 -8 18 -9 -5 -9 -33 -1 -66 -25 -85 -61 -21 -41 -19
-67 10 -117 22 -37 31 -43 58 -43 43 0 54 10 89 78 6 12 16 21 22 19 6 -3 11
7 10 23 -1 29 -12 52 -22 46 -4 -2 -18 11 -31 28 l-25 31 25 -20 c19 -15 18
-13 -3 8 -16 15 -36 27 -46 26 -14 0 -14 -2 3 -9z m8 -82 c14 -11 15 -17 4
-38 -15 -30 -48 -37 -67 -15 -11 13 -11 20 0 40 15 27 37 32 63 13z"/>
<path d="M5346 3212 c-4 -6 -3 -28 3 -47 5 -19 6 -33 1 -30 -5 3 7 -25 26 -62
19 -37 32 -73 29 -80 -2 -7 -1 -13 3 -13 10 1 39 24 40 33 1 4 3 9 3 12 1 3 2
8 3 13 7 31 32 82 40 82 5 0 7 3 4 6 -4 3 -2 19 2 35 7 23 5 31 -7 36 -8 3
-18 2 -22 -4 -3 -5 -14 -12 -23 -16 -10 -3 -18 -11 -18 -17 0 -6 5 -8 11 -4 8
5 8 1 0 -14 -15 -27 -37 -42 -28 -18 4 10 3 15 -3 11 -6 -3 -13 2 -17 12 -4
10 -9 20 -13 23 -3 3 -10 16 -16 29 -7 16 -13 21 -18 13z"/>
<path d="M5650 3212 c-83 -6 -79 -1 -77 -110 l2 -97 63 -3 c56 -3 63 -1 60 14
-2 10 -13 18 -26 19 -35 3 -48 29 -17 33 18 2 25 10 26 25 1 17 2 18 6 4 2 -9
9 -14 14 -11 6 3 5 -3 -2 -14 -10 -17 -10 -23 0 -36 7 -9 18 -13 23 -10 6 4 6
10 -1 17 -13 13 -15 30 -2 22 14 -8 5 31 -12 56 -8 11 -13 28 -10 37 9 36 -10
57 -47 54z m15 -73 c11 -16 2 -17 -25 -2 -24 12 -24 13 -3 13 12 0 25 -5 28
-11z"/>
<path d="M3545 3187 c-17 -12 -37 -30 -45 -40 -15 -19 -16 -19 -30 -1 -13 17
-13 18 0 9 9 -5 8 -2 -3 7 -10 10 -15 22 -12 29 5 7 -1 10 -16 7 -22 -3 -24
-7 -27 -100 -4 -93 -3 -98 16 -98 17 0 21 7 24 38 l3 37 20 -22 19 -23 35 33
c25 24 32 27 27 12 -9 -23 -9 -23 -7 -52 1 -18 7 -23 26 -23 22 0 25 3 19 26
-5 19 -4 25 5 20 6 -4 11 -3 11 3 0 5 -5 13 -11 16 -6 4 -8 22 -6 41 3 22 1
32 -6 27 -7 -4 -8 6 -4 30 7 46 -1 51 -38 24z"/>
<path d="M3875 3180 c-4 -16 -11 -30 -16 -30 -6 0 -7 -6 -3 -12 5 -9 2 -9 -9
1 -18 15 -23 26 -7 16 18 -11 10 10 -10 28 -35 29 -46 22 -41 -29 2 -30 -1
-49 -9 -54 -11 -7 -14 -33 -10 -92 2 -26 50 -24 50 1 0 11 4 22 10 26 5 3 6
13 3 23 -6 15 -4 15 15 -2 12 -10 24 -27 28 -38 7 -24 37 -19 39 7 1 11 5 50
10 86 6 55 4 68 -10 82 -24 24 -32 21 -40 -13z m12 -52 c-3 -8 -6 -5 -6 6 -1
11 2 17 5 13 3 -3 4 -12 1 -19z m-100 -60 c-3 -8 -6 -5 -6 6 -1 11 2 17 5 13
3 -3 4 -12 1 -19z"/>
<path d="M4023 3168 c-40 -60 -27 -136 27 -158 42 -17 87 -5 84 23 -1 12 -3
34 -3 50 -1 24 -5 27 -34 27 -18 0 -38 -5 -45 -12 -9 -9 -12 -8 -12 4 0 22 25
40 52 36 19 -2 23 2 26 28 3 30 1 32 -34 36 -33 4 -38 1 -61 -34z"/>
<path d="M4656 3201 c-3 -5 0 -11 8 -14 8 -3 17 1 20 9 6 15 -19 20 -28 5z"/>
<path d="M4714 3202 c4 -7 1 -12 -9 -12 -11 0 -15 -5 -11 -16 4 -9 2 -13 -5
-8 -8 4 -9 -1 -4 -17 11 -40 28 -69 37 -63 4 3 8 1 8 -5 0 -5 -9 -13 -20 -16
-30 -10 -24 -42 10 -60 28 -14 33 -14 58 1 22 13 29 24 31 55 1 22 -3 39 -9
39 -5 0 -9 6 -7 13 1 6 -6 12 -15 12 -10 0 -23 6 -30 14 -11 11 -8 12 20 6 31
-6 32 -5 32 24 0 28 -3 31 -29 31 -16 0 -37 3 -47 7 -12 4 -15 3 -10 -5z"/>
<path d="M4906 3166 c-26 -25 -42 -47 -36 -51 5 -3 10 -17 10 -29 0 -13 7 -29
15 -36 8 -7 15 -19 15 -28 0 -16 28 -41 46 -42 18 0 64 44 64 63 0 13 -7 16
-33 13 -41 -6 -53 2 -59 35 -6 32 17 49 66 49 21 0 36 6 40 15 3 8 1 15 -5 15
-6 0 -7 5 -4 10 3 6 -1 10 -9 10 -9 0 -16 4 -16 8 0 4 -11 9 -24 10 -16 1 -39
-13 -70 -42z"/>
<path d="M3239 3195 c-1 -3 -2 -8 -3 -12 -3 -17 -18 -33 -26 -28 -5 3 -12 0
-16 -6 -4 -8 -3 -9 4 -5 18 11 15 -9 -9 -65 -12 -27 -19 -58 -16 -69 3 -11 1
-18 -4 -14 -5 3 -9 0 -9 -5 0 -15 16 -14 56 5 27 13 40 14 66 5 19 -7 35 -8
41 -2 14 14 -54 201 -73 201 -6 0 -11 -2 -11 -5z"/>
<path d="M3670 3173 c0 -22 -2 -25 -10 -13 -7 11 -9 7 -5 -15 2 -16 7 -52 9
-80 4 -55 14 -85 26 -85 17 0 22 24 23 118 1 93 0 97 -21 100 -18 3 -22 -1
-22 -25z"/>
<path d="M4334 3192 c-19 -6 -20 -15 -20 -109 l1 -103 43 0 c26 0 41 4 37 10
-3 6 1 7 10 4 21 -8 65 22 65 45 0 10 3 21 6 24 9 9 11 86 2 80 -5 -2 -8 0 -8
5 0 28 -94 58 -136 44z m78 -71 c3 -3 8 -15 10 -26 2 -14 -2 -20 -14 -19 -10
1 -18 -3 -18 -8 0 -6 -6 -5 -15 2 -8 7 -15 26 -15 42 0 26 3 29 23 23 12 -4
25 -10 29 -14z"/>
<path d="M4525 3190 c-3 -5 -2 -18 4 -27 7 -14 9 -12 8 10 -2 30 -3 31 -12 17z"/>
<path d="M5790 3187 c0 -4 -5 -5 -11 -1 -7 4 -10 -2 -8 -17 2 -13 -1 -30 -5
-38 -6 -10 -5 -12 2 -7 8 5 12 -3 11 -26 0 -18 -3 -27 -6 -20 -9 22 -20 13
-21 -18 0 -16 4 -30 10 -30 6 0 8 -3 5 -7 -4 -3 -1 -13 6 -21 10 -13 9 -14 -3
-7 -13 8 -13 7 -1 -8 15 -19 46 -22 57 -6 3 6 19 9 35 7 15 -3 25 0 22 4 -3 5
3 8 13 6 21 -3 26 24 10 57 -5 11 -5 17 -1 12 5 -4 14 6 21 23 9 21 20 30 36
29 22 0 22 -1 3 -9 -14 -6 -16 -9 -5 -10 8 -2 18 -2 21 -2 3 1 5 -10 3 -24 -2
-22 0 -23 14 -12 13 11 15 11 9 -4 -3 -10 -2 -18 3 -18 6 0 10 -9 10 -20 0
-11 5 -20 11 -20 5 0 7 -4 4 -10 -3 -5 3 -10 15 -10 13 0 24 10 31 28 6 15 22
50 35 77 13 28 26 62 29 77 6 23 3 28 -19 34 -38 9 -59 -2 -53 -27 3 -12 3
-18 0 -15 -3 3 -14 1 -24 -5 -19 -10 -25 -1 -19 26 1 5 -1 7 -5 3 -4 -4 -14
-1 -22 7 -13 13 -16 13 -29 0 -9 -9 -13 -24 -10 -37 3 -13 3 -17 0 -10 -3 6
-10 12 -15 12 -6 0 -7 -4 -4 -10 3 -5 1 -10 -4 -10 -6 0 -11 5 -11 12 0 6 -3
8 -7 5 -4 -4 -18 4 -32 17 -25 23 -101 41 -101 23z m68 -59 c-7 -20 -48 -23
-48 -4 0 11 9 16 26 16 16 0 24 -5 22 -12z m-41 -144 c-3 -3 -12 -4 -19 -1 -8
3 -5 6 6 6 11 1 17 -2 13 -5z"/>
<path d="M5710 3148 c0 -10 5 -18 11 -18 5 0 8 -4 4 -9 -3 -5 0 -13 6 -17 8
-4 9 -3 5 4 -4 7 -3 12 2 12 6 0 13 7 16 16 5 14 4 15 -8 5 -11 -10 -17 -8
-25 6 -10 17 -10 17 -11 1z"/>
<path d="M5956 3077 c3 -10 9 -15 12 -12 3 3 0 11 -7 18 -10 9 -11 8 -5 -6z"/>
<path d="M2616 3062 c-3 -5 17 -8 45 -8 27 0 49 4 49 8 0 11 -87 10 -94 0z"/>
<path d="M5955 3040 c3 -5 8 -10 11 -10 2 0 4 5 4 10 0 6 -5 10 -11 10 -5 0
-7 -4 -4 -10z"/>
<path d="M3656 2443 c-1 -1 -215 -5 -476 -8 -1117 -14 -1028 -11 -1058 -31
-15 -10 -33 -25 -40 -33 -11 -14 -11 -14 -6 1 4 13 -2 21 -21 30 -23 10 -28
10 -37 -5 -5 -10 -14 -14 -20 -11 -7 5 -8 2 -3 -6 6 -9 4 -12 -6 -8 -8 3 -23
0 -33 -7 -10 -8 -25 -11 -34 -8 -15 4 -15 3 -2 -6 11 -8 11 -11 2 -11 -10 0
-10 -3 0 -14 7 -8 17 -12 22 -9 4 3 3 9 -4 13 -9 5 -9 9 -1 14 6 4 11 1 12 -6
0 -7 4 -4 9 7 l9 20 0 -20 c1 -16 3 -17 10 -6 12 19 38 22 51 6 8 -10 8 -15
-1 -21 -7 -4 -9 -3 -5 4 3 6 2 13 -4 17 -5 3 -10 1 -10 -4 0 -6 -7 -11 -15
-11 -8 0 -15 -5 -15 -11 0 -6 6 -9 13 -6 8 3 20 1 28 -5 11 -7 9 -8 -6 -3 -15
5 -17 3 -8 -6 6 -6 23 -11 37 -11 14 0 26 -3 26 -7 0 -11 75 -15 283 -15 108
-1 197 -4 197 -9 0 -4 8 -4 18 0 9 5 28 8 42 7 84 -5 771 -18 1075 -19 862 -5
1001 -5 1370 0 1359 18 1274 16 1515 30 106 6 174 12 220 21 18 3 25 11 25 28
0 17 -4 22 -15 18 -12 -4 -11 -1 3 15 17 20 14 59 -4 47 -5 -3 -9 -1 -9 4 0 5
-17 10 -37 11 -21 1 -51 3 -68 5 -94 13 -642 19 -1763 20 -695 1 -1265 0
-1266 -1z m-1600 -55 c4 -6 2 -14 -4 -16 -7 -2 -9 -9 -5 -15 4 -7 0 -6 -10 1
-9 8 -22 10 -29 6 -7 -4 -4 2 6 14 22 25 32 27 42 10z m4754 -8 c0 -5 -5 -10
-11 -10 -5 0 -7 5 -4 10 3 6 8 10 11 10 2 0 4 -4 4 -10z"/>
<path d="M1910 2399 c0 -5 5 -7 10 -4 6 3 10 8 10 11 0 2 -4 4 -10 4 -5 0 -10
-5 -10 -11z"/>
<path d="M1956 2398 c3 -4 9 -8 15 -8 5 0 9 4 9 8 0 5 -7 9 -15 9 -8 0 -12 -4
-9 -9z"/>
<path d="M2085 2400 c-3 -6 1 -7 9 -4 18 7 21 14 7 14 -6 0 -13 -4 -16 -10z"/>
<path d="M1893 2375 c0 -8 4 -12 9 -9 5 3 6 10 3 15 -9 13 -12 11 -12 -6z"/>
<path d="M1930 2380 c0 -5 5 -10 10 -10 6 0 10 5 10 10 0 6 -4 10 -10 10 -5 0
-10 -4 -10 -10z"/>
<path d="M1957 2324 c-4 -4 -7 -14 -7 -23 0 -11 3 -12 11 -4 6 6 10 16 7 23
-2 6 -7 8 -11 4z"/>
<path d="M2233 2156 c1 -6 -16 -12 -43 -14 -64 -3 -128 -22 -134 -39 -16 -42
58 -83 149 -83 49 0 56 3 79 33 22 29 33 83 15 71 -4 -2 -10 0 -14 6 -3 5 -16
10 -28 11 -21 0 -21 1 -3 8 19 7 19 8 -2 13 -13 4 -20 2 -19 -6z"/>
<path d="M6167 2154 c-15 -16 -2630 -22 -3304 -8 -261 5 -336 4 -348 -6 -8 -7
-12 -16 -9 -21 3 -5 1 -9 -4 -9 -35 0 -2 -90 35 -98 10 -2 135 -5 278 -7 143
-2 391 -7 550 -10 160 -3 406 -8 548 -10 313 -5 484 -16 509 -31 4 -3 8 0 8 7
0 10 3 10 11 2 7 -7 21 -8 40 -3 18 5 27 5 24 -1 -4 -5 3 -9 14 -9 11 0 22 4
25 9 7 10 66 8 85 -3 9 -6 12 -5 7 2 -5 8 8 10 44 8 27 -2 47 0 44 5 -3 5 3 6
13 2 19 -7 26 -7 168 1 178 10 447 17 859 22 397 4 421 5 452 24 17 11 35 27
38 36 8 21 7 67 -2 80 -8 13 -76 27 -85 18z"/>
<path d="M6441 2142 c-25 -8 -58 -55 -54 -73 15 -56 68 -68 242 -55 124 10
191 43 191 96 0 21 -6 29 -26 34 -29 8 -332 6 -353 -2z"/>
</g>
</svg>
